<?xml version="1.0" standalone="no"?>
<!DOCTYPE svg PUBLIC "-//W3C//DTD SVG 20010904//EN"
 "http://www.w3.org/TR/2001/REC-SVG-20010904/DTD/svg10.dtd">
<svg version="1.0" xmlns="http://www.w3.org/2000/svg"
 width="500.000000pt" height="500.000000pt" viewBox="0 0 500.000000 500.000000"
 preserveAspectRatio="xMidYMid meet">
<metadata>
Created by potrace 1.11, written by Peter Selinger 2001-2013
</metadata>
<g transform="translate(0.000000,500.000000) scale(0.100000,-0.100000)"
fill="#000000" stroke="none">
<path d="M2276 4553 c-3 -4 -29 -6 -57 -4 -28 1 -56 -3 -65 -9 -12 -11 -14
-154 -14 -1021 0 -555 -3 -1009 -7 -1009 -5 0 -223 -1 -485 -3 -262 -1 -479
-4 -482 -7 -3 -3 -7 -28 -9 -55 -3 -28 -3 -44 0 -37 6 16 983 18 983 2 0 -5
-26 -11 -57 -12 l-58 -1 45 -6 45 -6 -60 -8 c-409 -52 -790 -403 -891 -822
-15 -64 -19 -117 -19 -269 0 -133 3 -190 11 -193 7 -2 10 -13 7 -24 -3 -11 2
-28 12 -39 12 -13 15 -28 11 -47 -4 -18 -3 -23 2 -14 7 9 17 -7 36 -57 51
-134 148 -274 264 -384 132 -124 283 -209 453 -255 95 -25 119 -28 274 -27
142 0 185 4 258 22 191 48 329 125 479 270 137 132 218 257 273 419 29 88 58
245 53 294 -3 33 -4 34 -53 37 l-50 3 -3 -57 c-9 -184 -93 -399 -220 -560 -95
-122 -311 -257 -482 -303 -310 -84 -651 6 -899 235 -39 36 -71 63 -71 59 0 -4
-7 -2 -15 5 -21 18 -19 35 3 19 15 -13 16 -12 3 3 -7 10 -17 16 -21 13 -19
-12 -119 148 -159 255 -119 318 -81 624 114 920 137 206 405 369 668 405 l47
6 0 -496 c0 -395 3 -495 13 -488 6 4 372 10 812 13 l800 5 3 40 c4 58 13 76
22 45 7 -23 8 -23 9 -3 1 24 -14 39 -24 23 -4 -6 -99 -10 -263 -9 -164 0 -249
4 -234 9 12 5 22 15 22 22 0 10 -2 10 -9 -1 -12 -18 -17 -5 -26 59 -16 122
-83 287 -166 413 -43 65 -47 76 -21 56 14 -11 13 -9 -2 9 -11 12 -22 20 -24
17 -7 -7 -52 35 -52 48 0 5 8 4 18 -3 9 -7 -14 18 -53 54 -108 103 -238 184
-365 228 -77 26 -173 48 -223 50 l-42 1 45 7 45 7 -61 1 -61 2 -2 -54 -2 -54
68 -12 c263 -45 505 -198 650 -410 78 -115 146 -289 147 -378 1 -35 6 -56 16
-62 10 -6 -147 -10 -432 -10 l-448 0 -2 73 -2 72 -5 -70 c-4 -42 -8 -62 -12
-49 -4 12 -5 713 -3 1559 2 1266 5 1539 16 1546 7 5 8 9 2 9 -6 0 -14 -3 -18
-7z"/>
<path d="M2291 4434 c0 -11 3 -14 6 -6 3 7 2 16 -1 19 -3 4 -6 -2 -5 -13z"/>
<path d="M2813 4393 l-513 -3 0 -338 0 -337 156 2 c86 1 159 5 162 8 3 3 5 48
3 100 -4 142 -14 135 194 135 l175 0 0 126 c0 114 2 126 19 131 10 2 83 5 162
6 l144 2 5 88 c3 48 5 86 5 85 0 -2 -231 -4 -512 -5z"/>
<path d="M3344 4305 c0 -55 1 -76 3 -47 2 29 2 74 0 100 -2 26 -3 2 -3 -53z"/>
<path d="M2738 3933 c50 -2 134 -2 185 0 50 1 9 3 -93 3 -102 0 -143 -2 -92
-3z"/>
<path d="M2643 3880 c0 -25 2 -35 4 -22 2 12 2 32 0 45 -2 12 -4 2 -4 -23z"/>
<path d="M2643 3770 c0 -36 2 -50 4 -32 2 17 2 47 0 65 -2 17 -4 3 -4 -33z"/>
<path d="M2293 3585 c0 -33 2 -45 4 -27 2 18 2 45 0 60 -2 15 -4 0 -4 -33z"/>
<path d="M2300 3423 l0 -68 369 3 369 2 4 65 3 65 -372 0 -373 0 0 -67z"/>
<path d="M2487 3333 c105 -2 281 -2 390 0 109 1 23 2 -192 2 -214 0 -304 -1
-198 -2z"/>
<path d="M2293 3225 c0 -33 2 -45 4 -27 2 18 2 45 0 60 -2 15 -4 0 -4 -33z"/>
<path d="M3008 3145 c-3 -3 -162 -7 -354 -8 l-349 -2 -3 -232 -2 -233 544 0
545 0 3 108 3 107 -177 -3 -178 -3 -1 23 c-1 17 -3 18 -6 6 -2 -10 -9 -18 -14
-18 -15 0 -12 247 4 253 6 3 7 6 1 6 -6 1 -13 -1 -16 -4z"/>
<path d="M3414 2770 c0 -69 1 -97 3 -62 2 34 2 90 0 125 -2 34 -3 6 -3 -63z"/>
<path d="M2568 2643 c12 -2 30 -2 40 0 9 3 -1 5 -23 4 -22 0 -30 -2 -17 -4z"/>
<path d="M2838 2643 c6 -2 18 -2 25 0 6 3 1 5 -13 5 -14 0 -19 -2 -12 -5z"/>
<path d="M2993 2643 c37 -2 96 -2 130 0 34 2 4 3 -68 3 -71 0 -99 -1 -62 -3z"/>
<path d="M3278 2643 c18 -2 45 -2 60 0 15 2 0 4 -33 4 -33 0 -45 -2 -27 -4z"/>
<path d="M2292 2550 c0 -14 2 -19 5 -12 2 6 2 18 0 25 -3 6 -5 1 -5 -13z"/>
<path d="M3776 2507 c3 -10 9 -15 12 -12 3 3 0 11 -7 18 -10 9 -11 8 -5 -6z"/>
<path d="M2332 2503 c-31 -4 -33 -6 -30 -44 l2 -39 728 0 728 0 0 39 c0 34 -3
39 -27 44 -32 7 -1350 6 -1401 0z"/>
<path d="M3781 2464 c0 -11 3 -14 6 -6 3 7 2 16 -1 19 -3 4 -6 -2 -5 -13z"/>
<path d="M2293 2020 c0 -41 2 -58 4 -37 2 20 2 54 0 75 -2 20 -4 3 -4 -38z"/>
<path d="M2840 2036 c0 -2 8 -10 18 -17 15 -13 16 -12 3 4 -13 16 -21 21 -21
13z"/>
<path d="M1539 1993 c-13 -16 -12 -17 4 -4 9 7 17 15 17 17 0 8 -8 3 -21 -13z"/>
<path d="M2900 1976 c0 -2 8 -10 18 -17 15 -13 16 -12 3 4 -13 16 -21 21 -21
13z"/>
<path d="M2293 1875 c0 -27 2 -38 4 -22 2 15 2 37 0 50 -2 12 -4 0 -4 -28z"/>
<path d="M2292 1800 c0 -14 2 -19 5 -12 2 6 2 18 0 25 -3 6 -5 1 -5 -13z"/>
<path d="M2294 1670 c0 -58 1 -81 3 -52 2 28 2 76 0 105 -2 28 -3 5 -3 -53z"/>
<path d="M3151 1504 c0 -11 3 -14 6 -6 3 7 2 16 -1 19 -3 4 -6 -2 -5 -13z"/>
<path d="M3791 1364 c0 -11 3 -14 6 -6 3 7 2 16 -1 19 -3 4 -6 -2 -5 -13z"/>
<path d="M3788 1317 c-3 -19 -2 -25 4 -19 6 6 8 18 6 28 -3 14 -5 12 -10 -9z"/>
<path d="M2188 1283 c23 -2 59 -2 80 0 20 2 1 4 -43 4 -44 0 -61 -2 -37 -4z"/>
<path d="M1261 1234 c0 -11 3 -14 6 -6 3 7 2 16 -1 19 -3 4 -6 -2 -5 -13z"/>
<path d="M3292 1180 c0 -14 2 -19 5 -12 2 6 2 18 0 25 -3 6 -5 1 -5 -13z"/>
<path d="M2975 528 l-40 -43 43 40 c23 21 42 40 42 42 0 8 -9 0 -45 -39z"/>
<path d="M1515 470 c10 -11 20 -20 23 -20 3 0 -3 9 -13 20 -10 11 -20 20 -23
20 -3 0 3 -9 13 -20z"/>
<path d="M2018 233 c7 -3 16 -2 19 1 4 3 -2 6 -13 5 -11 0 -14 -3 -6 -6z"/>
<path d="M2132 223 c37 -2 100 -2 140 0 40 1 10 3 -67 3 -77 0 -110 -1 -73 -3z"/>
</g>
</svg>
